<svg  width="230" height="60" fill="#fff" id="Layer_1" data-name="Layer 1" xmlns="http://www.w3.org/2000/svg" viewBox="0 0 222.7 44.16"><defs><style>.cls-1{fill:#ed1f24;}.cls-2{fill:#f16667;}.cls-3{fill:#f69799;}.cls-4{fill:#cb2027;}.cls-5{fill:#666766;}</style></defs><title>logo</title><polygon class="cls-1" points="33.22 14.14 24.92 27.98 16.61 14.14 24.92 0.3 33.22 14.14"/><polygon class="cls-2" points="41.53 27.98 33.22 41.83 24.92 27.98 33.22 14.14 41.53 27.98"/><polygon class="cls-3" points="49.83 41.83 33.22 41.83 41.53 27.98 49.83 41.83"/><polygon class="cls-4" points="20.64 0.3 12.33 14.14 4.02 0.3 20.64 0.3"/><polygon class="cls-4" points="45.81 0.3 37.5 14.14 29.2 0.3 45.81 0.3"/><polygon class="cls-2" points="24.92 27.98 16.61 41.83 8.3 27.98 16.61 14.14 24.92 27.98"/><polygon class="cls-3" points="16.61 41.83 0 41.83 8.31 27.98 16.61 41.83"/><path class="cls-5" d="M80.85,27.91l-2-6.55h-10l-2,6.55H60.54L70.25.28h7.13l9.75,27.63ZM77.46,16.47Q74.69,7.56,74.34,6.4t-.5-1.84Q73.22,7,70.29,16.47Z" transform="translate(0 0)"/><path class="cls-5" d="M109.61,9a8.41,8.41,0,0,1-2.78,6.79q-2.78,2.35-7.9,2.35h-2.5v9.79H90.6V.39h8.79q5,0,7.61,2.15T109.61,9ZM96.43,13.34h1.92a6.39,6.39,0,0,0,4-1.06,3.72,3.72,0,0,0,1.34-3.1,3.82,3.82,0,0,0-1.12-3,5.25,5.25,0,0,0-3.51-1H96.43Z" transform="translate(0 0)"/><path class="cls-5" d="M133.81,9A8.41,8.41,0,0,1,131,15.77q-2.78,2.35-7.9,2.35h-2.5v9.79H114.8V.39h8.79q5,0,7.61,2.15T133.81,9Zm-13.17,4.37h1.92a6.39,6.39,0,0,0,4-1.06,3.72,3.72,0,0,0,1.34-3.1,3.82,3.82,0,0,0-1.12-3,5.25,5.25,0,0,0-3.51-1h-2.65Z" transform="translate(0 0)"/><path class="cls-5" d="M155.25,20.27a7.11,7.11,0,0,1-2.68,5.87q-2.68,2.15-7.46,2.15a17.53,17.53,0,0,1-7.79-1.66V21.21A32.05,32.05,0,0,0,142,23a14,14,0,0,0,3.53.51,5,5,0,0,0,2.95-.73,2.51,2.51,0,0,0,1-2.18,2.41,2.41,0,0,0-.45-1.44,5.05,5.05,0,0,0-1.33-1.21A34.08,34.08,0,0,0,144.18,16a16.88,16.88,0,0,1-3.78-2.28,8.54,8.54,0,0,1-2-2.54,7.25,7.25,0,0,1-.75-3.39,7.11,7.11,0,0,1,2.47-5.74A10.29,10.29,0,0,1,146.95,0,16.16,16.16,0,0,1,151,.51a28.18,28.18,0,0,1,4.07,1.43l-1.88,4.54a27.55,27.55,0,0,0-3.64-1.26,11.73,11.73,0,0,0-2.83-.36,3.75,3.75,0,0,0-2.54.77,2.55,2.55,0,0,0-.88,2A2.49,2.49,0,0,0,143.69,9a3.93,3.93,0,0,0,1.14,1.11,35,35,0,0,0,3.7,1.93,14.72,14.72,0,0,1,5.29,3.7A7.22,7.22,0,0,1,155.25,20.27Z" transform="translate(0 0)"/><path class="cls-5" d="M169,27.91h-3.2V3.23h-8.71V.39h20.63V3.23H169Z" transform="translate(0 0)"/><path class="cls-5" d="M197.22,27.91H181.88V.39h15.34V3.23H185.08V12.1h11.41v2.82H185.08V25h12.14Z" transform="translate(0 0)"/><path class="cls-5" d="M215.1,2.86a9,9,0,0,0-7.16,3q-2.62,3-2.62,8.27,0,5.4,2.53,8.35a9,9,0,0,0,7.22,2.95,24.63,24.63,0,0,0,6.57-1v2.8a20.22,20.22,0,0,1-7.06,1.07q-6.08,0-9.38-3.69t-3.3-10.48a16.54,16.54,0,0,1,1.59-7.45,11.41,11.41,0,0,1,4.59-4.93A13.9,13.9,0,0,1,215.14,0a17.06,17.06,0,0,1,7.57,1.58l-1.36,2.75A14.59,14.59,0,0,0,215.1,2.86Z" transform="translate(0 0)"/><path class="cls-5" d="M66.3,41.63l-.94-2.39h-3l-.93,2.39h-.88l3-7.55h.74l3,7.55Zm-1.21-3.18-.87-2.33Q64,35.68,63.87,35a9.7,9.7,0,0,1-.32,1.09l-.88,2.33Z" transform="translate(0 0)"/><path class="cls-5" d="M72.63,40.09A1.41,1.41,0,0,1,72,41.3a2.76,2.76,0,0,1-1.65.43,3.58,3.58,0,0,1-1.75-.35v-.79a4.21,4.21,0,0,0,.87.32,3.63,3.63,0,0,0,.9.12,2,2,0,0,0,1-.21.73.73,0,0,0,.07-1.21A4.48,4.48,0,0,0,70.41,39a6,6,0,0,1-1.12-.51,1.53,1.53,0,0,1-.49-.5,1.29,1.29,0,0,1-.16-.66,1.26,1.26,0,0,1,.56-1.09,2.61,2.61,0,0,1,1.54-.4,4.5,4.5,0,0,1,1.78.37l-.3.69a4.09,4.09,0,0,0-1.54-.35,1.77,1.77,0,0,0-.92.19.59.59,0,0,0-.31.52.64.64,0,0,0,.12.39,1.14,1.14,0,0,0,.37.3,8.3,8.3,0,0,0,1,.42,3.69,3.69,0,0,1,1.36.74A1.3,1.3,0,0,1,72.63,40.09Z" transform="translate(0 0)"/><path class="cls-5" d="M77.53,41.73a2.44,2.44,0,0,1-1-.2,1.9,1.9,0,0,1-.76-.62H75.7a7.58,7.58,0,0,1,.06.94v2.32h-.85V36h.69l.12.77h0a2,2,0,0,1,.77-.67,2.33,2.33,0,0,1,1-.21,2.09,2.09,0,0,1,1.73.77,3.38,3.38,0,0,1,.61,2.15A3.35,3.35,0,0,1,79.25,41,2.09,2.09,0,0,1,77.53,41.73Zm-.12-5.12a1.51,1.51,0,0,0-1.25.48,2.46,2.46,0,0,0-.4,1.52v.19a2.82,2.82,0,0,0,.4,1.7,1.51,1.51,0,0,0,1.27.51,1.32,1.32,0,0,0,1.14-.59A2.81,2.81,0,0,0,79,38.79a2.7,2.7,0,0,0-.41-1.62A1.36,1.36,0,0,0,77.41,36.61Z" transform="translate(0 0)"/><path class="cls-5" d="M82.18,34.46a.57.57,0,0,1,.14-.43A.53.53,0,0,1,83,34a.56.56,0,0,1,.15.43.56.56,0,0,1-.15.43.5.5,0,0,1-.35.14.49.49,0,0,1-.36-.14A.58.58,0,0,1,82.18,34.46Zm.93,7.17h-.85V36h.85Z" transform="translate(0 0)"/><path class="cls-5" d="M88.37,35.89a3.35,3.35,0,0,1,.67.06l-.12.79a2.92,2.92,0,0,0-.62-.08,1.5,1.5,0,0,0-1.17.56,2,2,0,0,0-.49,1.38v3H85.8V36h.71l.1,1h0a2.48,2.48,0,0,1,.76-.85A1.7,1.7,0,0,1,88.37,35.89Z" transform="translate(0 0)"/><path class="cls-5" d="M90.91,34.46a.57.57,0,0,1,.14-.43.53.53,0,0,1,.71,0,.56.56,0,0,1,.15.43.56.56,0,0,1-.15.43.5.5,0,0,1-.35.14.49.49,0,0,1-.36-.14A.58.58,0,0,1,90.91,34.46Zm.93,7.17H91V36h.85Z" transform="translate(0 0)"/><path class="cls-5" d="M98.39,41.63V38a1.47,1.47,0,0,0-.31-1,1.28,1.28,0,0,0-1-.34,1.62,1.62,0,0,0-1.3.48,2.41,2.41,0,0,0-.41,1.58v3h-.85V36h.69l.14.77h0a1.75,1.75,0,0,1,.74-.65,2.39,2.39,0,0,1,1.05-.23,2.14,2.14,0,0,1,1.53.49,2.09,2.09,0,0,1,.51,1.57v3.68Z" transform="translate(0 0)"/><path class="cls-5" d="M106.5,36v.54l-1,.12a1.83,1.83,0,0,1,.37,1.13,1.67,1.67,0,0,1-.57,1.32,2.28,2.28,0,0,1-1.55.49,2.55,2.55,0,0,1-.47,0,.84.84,0,0,0-.55.73.37.37,0,0,0,.19.34,1.39,1.39,0,0,0,.65.11h1a2.23,2.23,0,0,1,1.41.39,1.34,1.34,0,0,1,.49,1.12,1.6,1.6,0,0,1-.75,1.43,4,4,0,0,1-2.19.49,3,3,0,0,1-1.71-.41,1.33,1.33,0,0,1-.6-1.16,1.31,1.31,0,0,1,.33-.89,1.68,1.68,0,0,1,.93-.51.89.89,0,0,1-.36-.3.8.8,0,0,1-.15-.48.91.91,0,0,1,.16-.54,1.72,1.72,0,0,1,.52-.45,1.52,1.52,0,0,1-.71-.61,1.8,1.8,0,0,1-.28-1,1.82,1.82,0,0,1,.56-1.43,2.27,2.27,0,0,1,1.57-.5,2.87,2.87,0,0,1,.8.1ZM102,42.57a.76.76,0,0,0,.39.69,2.13,2.13,0,0,0,1.11.24,3.09,3.09,0,0,0,1.59-.32,1,1,0,0,0,.52-.87.69.69,0,0,0-.28-.64,2.2,2.2,0,0,0-1.06-.18h-1a1.35,1.35,0,0,0-.91.28A1,1,0,0,0,102,42.57Zm.46-4.78a1.15,1.15,0,0,0,.33.9,1.33,1.33,0,0,0,.93.3A1.09,1.09,0,0,0,105,37.78a1.12,1.12,0,0,0-1.27-1.27,1.25,1.25,0,0,0-.93.32A1.31,1.31,0,0,0,102.46,37.8Z" transform="translate(0 0)"/><path class="cls-5" d="M114.61,41.63h-.87V34.88h-2.38v-.78H117v.78h-2.38Z" transform="translate(0 0)"/><path class="cls-5" d="M123.74,38.8A3.11,3.11,0,0,1,123,41a2.45,2.45,0,0,1-1.92.77,2.54,2.54,0,0,1-1.34-.35,2.34,2.34,0,0,1-.91-1,3.55,3.55,0,0,1-.32-1.55,3.11,3.11,0,0,1,.69-2.15,2.44,2.44,0,0,1,1.91-.77,2.39,2.39,0,0,1,1.88.79A3.1,3.1,0,0,1,123.74,38.8Zm-4.3,0a2.67,2.67,0,0,0,.43,1.65,1.71,1.71,0,0,0,2.54,0,2.66,2.66,0,0,0,.44-1.65,2.62,2.62,0,0,0-.44-1.63,1.53,1.53,0,0,0-1.28-.56,1.5,1.5,0,0,0-1.27.55A2.65,2.65,0,0,0,119.45,38.8Z" transform="translate(0 0)"/><path class="cls-5" d="M130.73,41.63l-1-3.31q-.1-.3-.37-1.38h0q-.21.9-.36,1.39l-1.06,3.3h-1L125.34,36h.9l.83,3.24a13.06,13.06,0,0,1,.33,1.5h0q.06-.29.18-.76t.22-.74l1-3.24h.93l1,3.24a11,11,0,0,1,.39,1.49h0a5.42,5.42,0,0,1,.11-.57q.09-.39,1.07-4.15h.88l-1.56,5.64Z" transform="translate(0 0)"/><path class="cls-5" d="M138.67,41.63l-.17-.8h0a2.37,2.37,0,0,1-.84.72,2.57,2.57,0,0,1-1,.19,1.88,1.88,0,0,1-1.31-.43,1.58,1.58,0,0,1-.48-1.23q0-1.71,2.73-1.79l1,0V37.9a1.43,1.43,0,0,0-.29-1,1.18,1.18,0,0,0-.91-.32,3.72,3.72,0,0,0-1.59.43l-.26-.65a4,4,0,0,1,.91-.35,4,4,0,0,1,1-.13,2.15,2.15,0,0,1,1.49.45,1.87,1.87,0,0,1,.49,1.44v3.85Zm-1.93-.6a1.73,1.73,0,0,0,1.25-.44,1.62,1.62,0,0,0,.46-1.22v-.51l-.85,0a3.11,3.11,0,0,0-1.47.32,1,1,0,0,0-.45.87.88.88,0,0,0,.28.7A1.16,1.16,0,0,0,136.74,41Z" transform="translate(0 0)"/><path class="cls-5" d="M144.52,35.89a3.35,3.35,0,0,1,.67.06l-.12.79a2.92,2.92,0,0,0-.62-.08,1.5,1.5,0,0,0-1.17.56,2,2,0,0,0-.49,1.38v3h-.85V36h.71l.1,1h0a2.48,2.48,0,0,1,.76-.85A1.7,1.7,0,0,1,144.52,35.89Z" transform="translate(0 0)"/><path class="cls-5" d="M151,40.87h0a2,2,0,0,1-1.77.86,2.09,2.09,0,0,1-1.72-.76,3.33,3.33,0,0,1-.61-2.15,3.38,3.38,0,0,1,.62-2.17,2.08,2.08,0,0,1,1.72-.77,2.05,2.05,0,0,1,1.76.83H151l0-.41,0-.4V33.62h.85v8h-.69Zm-1.71.14a1.56,1.56,0,0,0,1.27-.48,2.41,2.41,0,0,0,.39-1.54v-.18a2.83,2.83,0,0,0-.4-1.71,1.51,1.51,0,0,0-1.27-.51,1.31,1.31,0,0,0-1.15.58,2.9,2.9,0,0,0-.4,1.65,2.78,2.78,0,0,0,.4,1.63A1.34,1.34,0,0,0,149.26,41Z" transform="translate(0 0)"/><path class="cls-5" d="M158.11,40.09a1.41,1.41,0,0,1-.59,1.21,2.76,2.76,0,0,1-1.65.43,3.58,3.58,0,0,1-1.75-.35v-.79a4.21,4.21,0,0,0,.87.32,3.63,3.63,0,0,0,.9.12,2,2,0,0,0,1-.21A.73.73,0,0,0,157,39.6a4.48,4.48,0,0,0-1.11-.55,6,6,0,0,1-1.12-.51,1.53,1.53,0,0,1-.49-.5,1.29,1.29,0,0,1-.16-.66,1.26,1.26,0,0,1,.56-1.09,2.61,2.61,0,0,1,1.54-.4,4.5,4.5,0,0,1,1.78.37l-.3.69a4.09,4.09,0,0,0-1.54-.35,1.77,1.77,0,0,0-.92.19.59.59,0,0,0-.31.52.64.64,0,0,0,.12.39,1.14,1.14,0,0,0,.37.3,8.3,8.3,0,0,0,1,.42,3.69,3.69,0,0,1,1.36.74A1.3,1.3,0,0,1,158.11,40.09Z" transform="translate(0 0)"/><path class="cls-5" d="M168.33,41.63h-4.19V34.11h4.19v.78H165v2.42h3.12v.77H165v2.77h3.32Z" transform="translate(0 0)"/><path class="cls-5" d="M172.11,38.74l-2-2.75h1l1.49,2.16L174.09,36h1l-2,2.75,2.06,2.89h-1l-1.58-2.28L171,41.63h-1Z" transform="translate(0 0)"/><path class="cls-5" d="M179.41,41.73a2.41,2.41,0,0,1-1.9-.75,3.1,3.1,0,0,1-.67-2.13,3.19,3.19,0,0,1,.68-2.19,2.45,2.45,0,0,1,1.94-.77,3.84,3.84,0,0,1,.81.09,2.66,2.66,0,0,1,.64.21l-.26.73a4.05,4.05,0,0,0-.62-.19,2.75,2.75,0,0,0-.59-.07q-1.72,0-1.72,2.19a2.61,2.61,0,0,0,.42,1.59,1.46,1.46,0,0,0,1.24.56,3.8,3.8,0,0,0,1.45-.3v.76A3.08,3.08,0,0,1,179.41,41.73Z" transform="translate(0 0)"/><path class="cls-5" d="M185.44,41.73a2.59,2.59,0,0,1-2-.76,2.94,2.94,0,0,1-.72-2.11,3.27,3.27,0,0,1,.67-2.17,2.23,2.23,0,0,1,1.8-.8,2.13,2.13,0,0,1,1.68.7,2.67,2.67,0,0,1,.62,1.84V39h-3.88a2.24,2.24,0,0,0,.5,1.51,1.74,1.74,0,0,0,1.34.51,4.54,4.54,0,0,0,1.8-.38v.76a4.51,4.51,0,0,1-.86.28A4.8,4.8,0,0,1,185.44,41.73Zm-.23-5.13a1.39,1.39,0,0,0-1.08.44,2,2,0,0,0-.48,1.22h2.95a1.88,1.88,0,0,0-.36-1.24A1.27,1.27,0,0,0,185.21,36.6Z" transform="translate(0 0)"/><path class="cls-5" d="M190.71,41.63h-.85v-8h.85Z" transform="translate(0 0)"/><path class="cls-5" d="M194.26,41.63h-.85v-8h.85Z" transform="translate(0 0)"/><path class="cls-5" d="M199.33,41.73a2.59,2.59,0,0,1-2-.76,2.94,2.94,0,0,1-.72-2.11,3.27,3.27,0,0,1,.67-2.17,2.23,2.23,0,0,1,1.8-.8,2.13,2.13,0,0,1,1.68.7,2.67,2.67,0,0,1,.62,1.84V39h-3.88a2.24,2.24,0,0,0,.5,1.51,1.74,1.74,0,0,0,1.34.51,4.54,4.54,0,0,0,1.8-.38v.76a4.51,4.51,0,0,1-.86.28A4.8,4.8,0,0,1,199.33,41.73Zm-.23-5.13A1.39,1.39,0,0,0,198,37a2,2,0,0,0-.48,1.22h2.95a1.88,1.88,0,0,0-.36-1.24A1.27,1.27,0,0,0,199.1,36.6Z" transform="translate(0 0)"/><path class="cls-5" d="M207.61,41.63V38a1.47,1.47,0,0,0-.31-1,1.28,1.28,0,0,0-1-.34,1.62,1.62,0,0,0-1.3.48,2.41,2.41,0,0,0-.41,1.58v3h-.85V36h.69l.14.77h0a1.75,1.75,0,0,1,.74-.65,2.39,2.39,0,0,1,1.05-.23,2.14,2.14,0,0,1,1.53.49,2.09,2.09,0,0,1,.51,1.57v3.68Z" transform="translate(0 0)"/><path class="cls-5" d="M213.35,41.73a2.41,2.41,0,0,1-1.9-.75,3.1,3.1,0,0,1-.67-2.13,3.19,3.19,0,0,1,.68-2.19,2.45,2.45,0,0,1,1.94-.77,3.84,3.84,0,0,1,.81.09,2.66,2.66,0,0,1,.64.21l-.26.73a4.05,4.05,0,0,0-.62-.19,2.75,2.75,0,0,0-.59-.07q-1.72,0-1.72,2.19a2.61,2.61,0,0,0,.42,1.59,1.46,1.46,0,0,0,1.24.56,3.8,3.8,0,0,0,1.45-.3v.76A3.08,3.08,0,0,1,213.35,41.73Z" transform="translate(0 0)"/><path class="cls-5" d="M219.38,41.73a2.59,2.59,0,0,1-2-.76,2.94,2.94,0,0,1-.72-2.11,3.27,3.27,0,0,1,.67-2.17,2.23,2.23,0,0,1,1.8-.8,2.13,2.13,0,0,1,1.68.7,2.67,2.67,0,0,1,.62,1.84V39h-3.88a2.24,2.24,0,0,0,.5,1.51,1.74,1.74,0,0,0,1.34.51,4.54,4.54,0,0,0,1.8-.38v.76a4.51,4.51,0,0,1-.86.28A4.8,4.8,0,0,1,219.38,41.73Zm-.23-5.13a1.39,1.39,0,0,0-1.08.44,2,2,0,0,0-.48,1.22h2.95a1.88,1.88,0,0,0-.36-1.24A1.27,1.27,0,0,0,219.15,36.6Z" transform="translate(0 0)" fill="#fff"/></svg>